<svg id="Layer_1" data-name="Layer 1" xmlns="http://www.w3.org/2000/svg" viewBox="0 0 115.19 41.4">
  <defs>
    <style>
      .cls-1 {
        fill: #fff !important;
      }

      .cls-2 {
        fill: #00abc7 !important;
      }
    </style>
  </defs>
  <g id="ad64b9b1-87ff-471f-affd-168095fa15f6">
    <g>
      <g>
        <path class="cls-1" d="M49.18,32.87a4.06,4.06,0,0,1-1.54,3.43,6.13,6.13,0,0,1-3.82,1.1,9.49,9.49,0,0,1-6-2.12l1.7-2.62a7.62,7.62,0,0,0,4.42,1.68q1.68,0,1.68-1.05v0c0-.39-.29-.71-.87-1q-.31-.14-2-.66Q38.5,30.38,38.5,27.4v0A4.06,4.06,0,0,1,40,24.05a5.59,5.59,0,0,1,3.61-1.15,9.24,9.24,0,0,1,5.24,1.62l-1.52,2.75A7.84,7.84,0,0,0,43.55,26c-1,0-1.46.32-1.46,1V27c0,.35.29.67.86.94.23.11.89.35,2,.74A10,10,0,0,1,47.79,30a3.4,3.4,0,0,1,1.39,2.8Z"/>
        <path class="cls-1" d="M58.85,37.48a7.49,7.49,0,0,1-1.8,3,4.18,4.18,0,0,1-2.8.89,6.88,6.88,0,0,1-3.54-1l1.34-2.88a3.24,3.24,0,0,0,1.7.55,1.46,1.46,0,0,0,1.39-.91l-5.5-14.08h4.21l3.2,9.55,3.06-9.55h4.13Z"/>
        <path class="cls-1" d="M75.45,32.87A4,4,0,0,1,73.9,36.3a6.11,6.11,0,0,1-3.82,1.1,9.51,9.51,0,0,1-6-2.12l1.7-2.62a7.62,7.62,0,0,0,4.43,1.68c1.11,0,1.67-.35,1.67-1.05v0c0-.39-.29-.71-.86-1q-.31-.14-2-.66-4.18-1.23-4.19-4.21v0a4,4,0,0,1,1.52-3.3A5.59,5.59,0,0,1,69.9,22.9a9.21,9.21,0,0,1,5.23,1.62l-1.52,2.75A7.8,7.8,0,0,0,69.82,26c-1,0-1.46.32-1.46,1V27c0,.35.28.67.86.94.23.11.89.35,2,.74A10.1,10.1,0,0,1,74.06,30a3.43,3.43,0,0,1,1.39,2.8Z"/>
        <path class="cls-1" d="M87.58,37.14V35.91a6.32,6.32,0,0,1-4.37,1.49,6,6,0,0,1-4.42-1.86,7.43,7.43,0,0,1-2-5.39v0a7.51,7.51,0,0,1,1.93-5.39,5.94,5.94,0,0,1,4.45-1.86,7,7,0,0,1,4.37,1.31V18h4V37.14Zm0-7a4,4,0,0,0-1-2.8,3.13,3.13,0,0,0-2.41-1.08,3.18,3.18,0,0,0-2.4,1.05,3.93,3.93,0,0,0-1,2.83v0a3.92,3.92,0,0,0,1,2.8,3.23,3.23,0,0,0,4.57.24l.24-.24a4,4,0,0,0,1-2.8Z"/>
        <path class="cls-1" d="M94,21.57V18h4.18v3.54Zm.1,15.57v-14h4v14Z"/>
        <path class="cls-1" d="M115.19,34q0,3.9-2,5.68c-1.25,1.15-3.21,1.72-5.86,1.72a13.07,13.07,0,0,1-6.2-1.46l1.36-3.25A9.5,9.5,0,0,0,107.27,38c2.66,0,4-1.1,4-3.3v-.16A7.15,7.15,0,0,1,106.69,36a5.94,5.94,0,0,1-4.34-1.7,6.42,6.42,0,0,1-1.89-4.84v-.05a6.4,6.4,0,0,1,1.91-4.84,6,6,0,0,1,4.32-1.7,7.84,7.84,0,0,1,4.53,1.31V23.11h4Zm-3.92-4.58a3,3,0,0,0-1-2.33,3.68,3.68,0,0,0-4.86,0,3.06,3.06,0,0,0-1,2.33v.05a3.09,3.09,0,0,0,1,2.36,3.45,3.45,0,0,0,2.43.89,3.36,3.36,0,0,0,2.43-.92,3,3,0,0,0,1-2.33Z"/>
      </g>
      <g>
        <path class="cls-2" d="M21.12,37.07a10,10,0,0,1-8.83-5.16C11.51,30.57,9.51,27,9.4,26.82a1.36,1.36,0,0,1,2.37-1.32s2.09,3.73,2.86,5.06c1.9,3.3,5.39,4.56,9.32,3.37a1.35,1.35,0,0,1,.78,2.58h0A12.31,12.31,0,0,1,21.12,37.07Z"/>
        <g>
          <path class="cls-2" d="M21.41,41.36c-5.15,0-10-2.42-12.38-6.61L3.5,25.18A1.36,1.36,0,0,1,4,23.33H4l3.77-2.17A1.35,1.35,0,0,1,9.12,23.5L6.52,25l4.85,8.4C14,38,20.26,39.86,26,37.88c4.59-4,6.07-10.35,3.44-14.91l-4.65-8a1.35,1.35,0,0,1,2.34-1.36l4.65,8.05c3.31,5.74,1.5,13.68-4.22,18.48a1.3,1.3,0,0,1-.41.24A17,17,0,0,1,21.41,41.36Zm5.28-2.29Z"/>
          <path class="cls-2" d="M21,32.69a5.86,5.86,0,0,1-4.87-3L.18,2A1.35,1.35,0,1,1,2.52.68l16,27.64c.44.76,1.67,2.05,3.23,1.55a1.35,1.35,0,0,1,.83,2.57A5,5,0,0,1,21,32.69Z"/>
          <path class="cls-2" d="M17.55,18.42a1.35,1.35,0,0,1-1.17-.68L11.9,10a1.35,1.35,0,0,1,2.34-1.36L18,15.22l2.42-1.39a1.34,1.34,0,0,1,1.85.49,1.36,1.36,0,0,1-.5,1.85l-3.59,2.07A1.29,1.29,0,0,1,17.55,18.42Z"/>
        </g>
      </g>
    </g>
  </g>
</svg>
